<?xml version="1.0" standalone="no"?>
<!DOCTYPE svg PUBLIC "-//W3C//DTD SVG 20010904//EN"
 "http://www.w3.org/TR/2001/REC-SVG-20010904/DTD/svg10.dtd">
<svg version="1.0" xmlns="http://www.w3.org/2000/svg"
 width="1024.000000pt" height="1024.000000pt" viewBox="0 0 1024.000000 1024.000000"
 preserveAspectRatio="xMidYMid meet">
<metadata>
Created by potrace 1.11, written by Peter Selinger 2001-2013
</metadata>
<g transform="translate(0.000000,1024.000000) scale(0.100000,-0.100000)"
fill="#000000" stroke="none">
<path d="M5600 9593 c-337 -70 -579 -297 -672 -630 -27 -99 -30 -292 -4 -396
121 -502 643 -787 1122 -613 151 55 326 190 411 316 61 91 120 232 138 330 12
61 15 233 5 275 -5 22 -11 55 -15 73 -31 180 -177 393 -351 513 -69 47 -200
105 -284 124 -94 22 -265 26 -350 8z"/>
<path d="M5028 7685 c-6 -6 -158 -32 -228 -39 -26 -3 -1681 -694 -1975 -825
-22 -10 -87 -37 -145 -61 -58 -24 -110 -47 -115 -51 -7 -5 -10 -348 -10 -1006
l0 -998 428 -1 427 -2 0 727 0 726 78 29 c74 28 211 81 467 181 160 63 227 86
221 76 -3 -5 -8 -23 -10 -42 -3 -19 -41 -214 -85 -434 -44 -220 -82 -411 -85
-425 -2 -14 -18 -95 -35 -180 -16 -85 -32 -167 -35 -182 -3 -16 -8 -40 -11
-55 -3 -16 -8 -41 -12 -58 -3 -16 -7 -37 -8 -45 -2 -8 -15 -75 -30 -149 -15
-74 -29 -144 -31 -155 -2 -12 -7 -34 -9 -49 -3 -15 -16 -83 -30 -150 -13 -67
-27 -138 -30 -157 -3 -19 -8 -42 -10 -50 -2 -8 -6 -26 -9 -40 -2 -14 -14 -72
-25 -130 -12 -58 -24 -121 -27 -140 -3 -19 -7 -43 -10 -52 -3 -9 -7 -27 -9
-40 -25 -125 -37 -187 -41 -208 -3 -14 -16 -79 -29 -145 -14 -66 -27 -131 -30
-145 -59 -317 -81 -410 -95 -410 -8 0 -58 9 -110 20 -52 11 -104 22 -115 24
-11 2 -90 18 -175 36 -85 18 -166 34 -180 37 -13 2 -56 11 -95 19 -38 9 -81
18 -95 20 -14 3 -79 16 -145 30 -66 13 -129 26 -140 28 -17 4 -198 41 -245 50
-33 7 -100 18 -102 16 -2 -1 -15 3 -29 8 -14 6 -41 13 -60 16 -19 3 -90 17
-159 31 -69 15 -136 28 -150 31 -14 3 -81 16 -149 30 -68 13 -125 23 -126 22
-2 -2 -13 -52 -25 -113 -12 -60 -24 -119 -26 -130 -2 -11 -7 -36 -10 -55 -3
-19 -9 -51 -14 -70 -5 -19 -12 -51 -15 -70 -3 -19 -10 -53 -15 -75 -5 -22 -11
-53 -14 -70 -3 -16 -16 -83 -29 -147 l-24 -117 66 -15 c36 -8 91 -19 121 -25
30 -6 89 -18 130 -26 41 -8 86 -17 100 -20 30 -6 58 -11 125 -25 28 -5 59 -11
70 -13 11 -2 31 -7 45 -10 20 -5 207 -42 363 -73 15 -2 196 -39 399 -80 13 -2
37 -7 53 -10 17 -3 48 -9 70 -14 22 -5 54 -11 70 -14 36 -7 63 -12 130 -26 28
-6 60 -12 73 -15 13 -2 104 -20 202 -40 98 -20 187 -37 197 -39 10 -2 113 -23
228 -46 341 -69 349 -70 375 -75 14 -3 39 -7 55 -11 17 -3 48 -9 70 -14 42 -9
53 -3 56 33 1 9 2 20 3 25 9 34 17 70 20 87 3 11 21 92 41 180 20 88 38 168
40 178 2 10 6 26 9 35 3 9 7 28 10 42 5 31 21 99 46 205 10 44 22 95 25 114 3
19 8 37 10 41 2 4 11 38 19 76 8 38 29 132 46 209 91 399 122 535 132 583 6
28 14 52 17 52 6 0 60 -50 237 -219 220 -210 468 -447 489 -466 11 -11 55 -52
96 -91 l74 -71 -1 -1279 -1 -1279 418 0 c229 0 421 4 426 8 4 5 8 725 9 1600
l0 1592 -35 34 c-20 18 -112 106 -205 195 -93 88 -183 175 -201 191 -17 17
-107 103 -201 191 -93 89 -188 179 -211 201 -48 43 -47 28 -13 193 11 52 21
106 24 120 2 14 14 70 25 125 12 55 24 115 27 134 7 39 10 57 18 91 3 14 8 36
10 50 3 14 23 117 46 230 23 113 44 216 46 230 7 40 27 135 29 138 1 1 67 -62
146 -141 79 -78 190 -179 245 -224 425 -339 929 -563 1469 -652 132 -22 202
-28 366 -35 l119 -6 1 33 c1 40 0 750 0 793 -1 29 -3 31 -38 31 -48 -1 -256
13 -263 18 -3 2 -30 6 -60 10 -71 9 -265 57 -355 88 -312 108 -622 303 -821
517 -18 19 -53 57 -78 83 -24 27 -64 75 -88 108 -52 72 -508 799 -508 811 0 4
-4 8 -10 8 -5 0 -10 5 -10 11 0 25 -90 139 -181 230 -114 114 -240 186 -389
225 -56 14 -262 28 -272 19z"/>
</g>
</svg>
